<svg width="197" height="43" viewBox="0 0 197 43" fill="none" xmlns="http://www.w3.org/2000/svg">
<g filter="url(#filter0_d_301_329)">
<mask id="path-1-outside-1_301_329" maskUnits="userSpaceOnUse" x="4" y="0" width="189" height="35" fill="black">
<rect fill="white" x="4" width="189" height="35"/>
<path fill-rule="evenodd" clip-rule="evenodd" d="M38.1649 19.6033C37.7221 20.031 37.5209 20.6472 37.6246 21.2516L38.2935 25.1189C38.5019 26.3228 37.5375 27.3005 36.4436 27.3005C36.1553 27.3005 35.8577 27.2323 35.5694 27.0822L32.0697 25.2562C31.7959 25.114 31.4963 25.0429 31.1956 25.0429C30.8959 25.0429 30.5962 25.114 30.3224 25.2562L26.8227 27.0822C26.5345 27.2323 26.2369 27.3005 25.9486 27.3005C24.8546 27.3005 23.8902 26.3228 24.0987 25.1189L24.7675 21.2516C24.8712 20.6472 24.67 20.031 24.2273 19.6033L21.3953 16.8648C20.2817 15.7874 20.8966 13.91 22.4354 13.6878L26.3489 13.1239C26.9607 13.036 27.4895 12.6548 27.7622 12.1047L29.5126 8.58701C29.8568 7.89472 30.5267 7.54908 31.1956 7.54908C31.8654 7.54908 32.5353 7.89472 32.8796 8.58701L34.6299 12.1047C34.9026 12.6548 35.4315 13.036 36.0433 13.1239L39.9567 13.6878C41.4956 13.91 42.1105 15.7874 40.9968 16.8648L38.1649 19.6033Z"/>
<path d="M53.7556 11.9129V8.27818C53.7556 4.26088 50.4975 1 46.4791 1V4.64018C48.4869 4.64018 50.1176 6.2698 50.1176 8.27818V11.9129C50.1176 14.0992 51.1016 16.0383 52.6281 17.3726C51.1016 18.7065 50.1176 20.6428 50.1176 22.8302V26.4682C50.1176 28.4776 48.4869 30.1067 46.4774 30.1067V33.7453C50.4937 33.7453 53.7556 30.4888 53.7556 26.4682V22.8302C53.7556 20.8207 55.3863 19.1916 57.3942 19.1916V15.5515C55.3831 15.5515 53.7556 13.9218 53.7556 11.9129Z"/>
<path d="M12.2787 11.9151V8.27655C12.2787 6.26708 13.9094 4.638 15.9189 4.638V1C11.9005 1 8.64018 4.25652 8.64018 8.27655L8.63855 11.9151C8.63855 13.9246 7.00947 15.5531 5 15.5531V19.1916L5.00164 19.1933C7.01111 19.1933 8.64018 20.8223 8.64018 22.8318V26.4665C8.64018 30.4833 11.8967 33.7453 15.9167 33.7453V30.1051C13.9073 30.1051 12.2787 28.476 12.2787 26.4665V22.8318C12.2787 20.645 11.2942 18.7065 9.76826 17.3726C11.2942 16.0383 12.2787 14.1008 12.2787 11.9151Z"/>
<path d="M91.6573 27.2573L91.6411 17.9967H83.2356V21.3847H87.1238L87.1076 25.644C86.9893 25.7838 86.8118 25.9182 86.5752 26.0473C86.3493 26.1656 86.0858 26.2732 85.7847 26.37C85.4835 26.4668 85.1608 26.5421 84.8167 26.5958C84.4725 26.6496 84.1229 26.6765 83.768 26.6765C83.1872 26.6657 82.6655 26.5743 82.203 26.4022C81.7513 26.2194 81.3534 25.9559 81.0092 25.6117C80.8048 25.4073 80.6166 25.1761 80.4445 24.918C80.2832 24.6491 80.138 24.3587 80.0089 24.0467C79.8045 23.509 79.6432 22.8905 79.5249 22.1914C79.4173 21.4923 79.3636 20.7179 79.3636 19.8682V16.6415C79.3636 15.9639 79.4012 15.3347 79.4765 14.7539C79.5625 14.1731 79.6808 13.646 79.8314 13.1728C80.025 12.5597 80.267 12.0273 80.5574 11.5756C80.8586 11.1238 81.192 10.7581 81.5577 10.4785C81.8374 10.2741 82.1385 10.1182 82.4612 10.0106C82.7839 9.90306 83.1173 9.84928 83.4615 9.84928C84.096 9.84928 84.6392 9.93533 85.0909 10.1074C85.5534 10.2688 85.9353 10.5161 86.2364 10.8496C86.5053 11.1507 86.715 11.5218 86.8656 11.9628C87.027 12.4038 87.1453 12.9093 87.2206 13.4793H91.6411C91.5228 12.35 91.2701 11.3336 90.8829 10.4301C90.5064 9.52661 89.9794 8.75759 89.3018 8.123C88.6242 7.49917 87.7906 7.02055 86.8011 6.68712C85.8223 6.3537 84.6715 6.18698 83.3485 6.18698C82.4881 6.18698 81.6706 6.3053 80.8962 6.54192C80.1218 6.77854 79.4066 7.1281 78.7505 7.5906C78.1912 7.99931 77.6749 8.48332 77.2017 9.04261C76.7392 9.6019 76.3305 10.2311 75.9755 10.9302C75.5991 11.7154 75.3087 12.592 75.1043 13.56C74.9 14.5172 74.7978 15.5552 74.7978 16.6737V19.8682C74.7978 21.0405 74.9 22.1269 75.1043 23.1271C75.3194 24.1274 75.6313 25.0255 76.0401 25.8214C76.395 26.5421 76.8252 27.182 77.3307 27.7413C77.847 28.3006 78.4171 28.7739 79.0409 29.1611C79.6755 29.5375 80.3692 29.8225 81.1221 30.0161C81.8858 30.2205 82.6978 30.3227 83.5583 30.3227C84.5478 30.3227 85.4728 30.2312 86.3332 30.0484C87.1937 29.8656 87.9735 29.6236 88.6726 29.3224C89.3609 29.032 89.9579 28.7039 90.4634 28.3383C90.9689 27.9726 91.3669 27.6122 91.6573 27.2573Z"/>
<path d="M96.707 12.5436V16.2059H101.676V26.3538H96.707V30H110.937V26.3538H106.21V12.5436H96.707ZM101.353 8.0746C101.353 8.41878 101.413 8.74145 101.531 9.04261C101.66 9.33301 101.837 9.58039 102.063 9.78475C102.289 9.99986 102.558 10.1666 102.87 10.2849C103.193 10.4032 103.548 10.4624 103.935 10.4624C104.731 10.4624 105.36 10.2419 105.822 9.80088C106.296 9.34915 106.532 8.77372 106.532 8.0746C106.532 7.37548 106.296 6.80543 105.822 6.36445C105.36 5.91271 104.731 5.68685 103.935 5.68685C103.548 5.68685 103.193 5.746 102.87 5.86431C102.558 5.98263 102.289 6.14396 102.063 6.34832C101.837 6.56343 101.66 6.82157 101.531 7.12273C101.413 7.41313 101.353 7.73042 101.353 8.0746Z"/>
<path d="M123.585 8.2682H119.1V12.5436H115.115V15.8509H119.1V23.7886C119.1 24.9395 119.251 25.929 119.552 26.7572C119.853 27.5746 120.283 28.2468 120.843 28.7739C121.391 29.3116 122.053 29.7096 122.827 29.9677C123.612 30.2151 124.484 30.3388 125.441 30.3388C125.936 30.3388 126.436 30.3119 126.941 30.2581C127.457 30.2151 127.952 30.1506 128.425 30.0645C128.899 29.9785 129.345 29.8709 129.765 29.7419C130.184 29.602 130.55 29.4407 130.862 29.2579L130.426 26.1764C130.222 26.2301 129.974 26.2839 129.684 26.3377C129.404 26.3915 129.103 26.4399 128.78 26.4829C128.447 26.5367 128.097 26.5797 127.732 26.612C127.377 26.6442 127.027 26.6604 126.683 26.6604C126.21 26.6604 125.78 26.6066 125.392 26.499C125.016 26.3915 124.693 26.2086 124.424 25.9505C124.155 25.7031 123.946 25.3697 123.795 24.9502C123.655 24.52 123.585 23.9876 123.585 23.353V15.8509H130.103V12.5436H123.585V8.2682Z"/>
<path d="M149.948 20.2715V16.5931H139.88V10.2042H151.206V6.50965H135.331V30H139.88V20.2715H149.948Z"/>
<path d="M165.952 30H170.502V29.7257C170.276 29.2847 170.104 28.7577 169.985 28.1446C169.867 27.5316 169.808 26.7572 169.808 25.8214V18.3355C169.808 17.3245 169.62 16.4371 169.243 15.6735C168.867 14.8991 168.345 14.2591 167.678 13.7536C167.011 13.2481 166.221 12.8662 165.307 12.6081C164.403 12.35 163.424 12.2209 162.37 12.2209C161.198 12.2209 160.155 12.3715 159.24 12.6726C158.337 12.963 157.573 13.361 156.949 13.8665C156.315 14.372 155.831 14.9582 155.497 15.6251C155.175 16.2919 155.013 16.9964 155.013 17.7386H159.499C159.499 17.4266 159.542 17.1416 159.628 16.8835C159.724 16.6253 159.87 16.4049 160.063 16.222C160.278 16.0177 160.558 15.8617 160.902 15.7541C161.246 15.6358 161.655 15.5767 162.128 15.5767C162.666 15.5767 163.134 15.6466 163.532 15.7864C163.941 15.9155 164.279 16.1037 164.548 16.3511C164.806 16.5877 165 16.8727 165.129 17.2062C165.258 17.5288 165.323 17.8945 165.323 18.3032V19.3358H162.822C161.531 19.3358 160.386 19.4541 159.386 19.6907C158.396 19.9166 157.563 20.25 156.885 20.691C156.132 21.175 155.567 21.7934 155.191 22.5463C154.814 23.2885 154.626 24.1435 154.626 25.1116C154.626 25.8645 154.777 26.5636 155.078 27.2089C155.379 27.8435 155.799 28.392 156.336 28.8545C156.874 29.317 157.514 29.6773 158.256 29.9355C159.009 30.1936 159.832 30.3227 160.725 30.3227C161.273 30.3227 161.784 30.2689 162.257 30.1613C162.731 30.0645 163.166 29.9247 163.564 29.7419C163.951 29.5698 164.306 29.3654 164.629 29.1288C164.952 28.8922 165.237 28.6394 165.484 28.3705C165.538 28.6824 165.602 28.9782 165.678 29.2579C165.753 29.5375 165.844 29.7849 165.952 30ZM161.677 26.854C161.257 26.854 160.886 26.8056 160.563 26.7088C160.251 26.6012 159.988 26.4614 159.773 26.2893C159.558 26.1065 159.391 25.886 159.273 25.6278C159.165 25.3589 159.111 25.0685 159.111 24.7566C159.111 24.3587 159.187 23.993 159.337 23.6595C159.488 23.3154 159.719 23.0196 160.031 22.7722C160.343 22.5356 160.746 22.3527 161.241 22.2237C161.736 22.0838 162.333 22.0139 163.032 22.0139H165.323V25.0148C165.194 25.2406 165.016 25.4665 164.79 25.6924C164.564 25.9075 164.296 26.1011 163.984 26.2732C163.672 26.4453 163.322 26.5851 162.935 26.6926C162.548 26.8002 162.128 26.854 161.677 26.854Z"/>
<path d="M180.44 30H184.651L191.282 12.5436H186.603L182.779 24.8534L182.537 26.0796L182.295 24.8534L178.455 12.5436H173.777L180.44 30Z"/>
</mask>
<path fill-rule="evenodd" clip-rule="evenodd" d="M38.1649 19.6033C37.7221 20.031 37.5209 20.6472 37.6246 21.2516L38.2935 25.1189C38.5019 26.3228 37.5375 27.3005 36.4436 27.3005C36.1553 27.3005 35.8577 27.2323 35.5694 27.0822L32.0697 25.2562C31.7959 25.114 31.4963 25.0429 31.1956 25.0429C30.8959 25.0429 30.5962 25.114 30.3224 25.2562L26.8227 27.0822C26.5345 27.2323 26.2369 27.3005 25.9486 27.3005C24.8546 27.3005 23.8902 26.3228 24.0987 25.1189L24.7675 21.2516C24.8712 20.6472 24.67 20.031 24.2273 19.6033L21.3953 16.8648C20.2817 15.7874 20.8966 13.91 22.4354 13.6878L26.3489 13.1239C26.9607 13.036 27.4895 12.6548 27.7622 12.1047L29.5126 8.58701C29.8568 7.89472 30.5267 7.54908 31.1956 7.54908C31.8654 7.54908 32.5353 7.89472 32.8796 8.58701L34.6299 12.1047C34.9026 12.6548 35.4315 13.036 36.0433 13.1239L39.9567 13.6878C41.4956 13.91 42.1105 15.7874 40.9968 16.8648L38.1649 19.6033Z" fill="white"/>
<path d="M53.7556 11.9129V8.27818C53.7556 4.26088 50.4975 1 46.4791 1V4.64018C48.4869 4.64018 50.1176 6.2698 50.1176 8.27818V11.9129C50.1176 14.0992 51.1016 16.0383 52.6281 17.3726C51.1016 18.7065 50.1176 20.6428 50.1176 22.8302V26.4682C50.1176 28.4776 48.4869 30.1067 46.4774 30.1067V33.7453C50.4937 33.7453 53.7556 30.4888 53.7556 26.4682V22.8302C53.7556 20.8207 55.3863 19.1916 57.3942 19.1916V15.5515C55.3831 15.5515 53.7556 13.9218 53.7556 11.9129Z" fill="white"/>
<path d="M12.2787 11.9151V8.27655C12.2787 6.26708 13.9094 4.638 15.9189 4.638V1C11.9005 1 8.64018 4.25652 8.64018 8.27655L8.63855 11.9151C8.63855 13.9246 7.00947 15.5531 5 15.5531V19.1916L5.00164 19.1933C7.01111 19.1933 8.64018 20.8223 8.64018 22.8318V26.4665C8.64018 30.4833 11.8967 33.7453 15.9167 33.7453V30.1051C13.9073 30.1051 12.2787 28.476 12.2787 26.4665V22.8318C12.2787 20.645 11.2942 18.7065 9.76826 17.3726C11.2942 16.0383 12.2787 14.1008 12.2787 11.9151Z" fill="white"/>
<path d="M91.6573 27.2573L91.6411 17.9967H83.2356V21.3847H87.1238L87.1076 25.644C86.9893 25.7838 86.8118 25.9182 86.5752 26.0473C86.3493 26.1656 86.0858 26.2732 85.7847 26.37C85.4835 26.4668 85.1608 26.5421 84.8167 26.5958C84.4725 26.6496 84.1229 26.6765 83.768 26.6765C83.1872 26.6657 82.6655 26.5743 82.203 26.4022C81.7513 26.2194 81.3534 25.9559 81.0092 25.6117C80.8048 25.4073 80.6166 25.1761 80.4445 24.918C80.2832 24.6491 80.138 24.3587 80.0089 24.0467C79.8045 23.509 79.6432 22.8905 79.5249 22.1914C79.4173 21.4923 79.3636 20.7179 79.3636 19.8682V16.6415C79.3636 15.9639 79.4012 15.3347 79.4765 14.7539C79.5625 14.1731 79.6808 13.646 79.8314 13.1728C80.025 12.5597 80.267 12.0273 80.5574 11.5756C80.8586 11.1238 81.192 10.7581 81.5577 10.4785C81.8374 10.2741 82.1385 10.1182 82.4612 10.0106C82.7839 9.90306 83.1173 9.84928 83.4615 9.84928C84.096 9.84928 84.6392 9.93533 85.0909 10.1074C85.5534 10.2688 85.9353 10.5161 86.2364 10.8496C86.5053 11.1507 86.715 11.5218 86.8656 11.9628C87.027 12.4038 87.1453 12.9093 87.2206 13.4793H91.6411C91.5228 12.35 91.2701 11.3336 90.8829 10.4301C90.5064 9.52661 89.9794 8.75759 89.3018 8.123C88.6242 7.49917 87.7906 7.02055 86.8011 6.68712C85.8223 6.3537 84.6715 6.18698 83.3485 6.18698C82.4881 6.18698 81.6706 6.3053 80.8962 6.54192C80.1218 6.77854 79.4066 7.1281 78.7505 7.5906C78.1912 7.99931 77.6749 8.48332 77.2017 9.04261C76.7392 9.6019 76.3305 10.2311 75.9755 10.9302C75.5991 11.7154 75.3087 12.592 75.1043 13.56C74.9 14.5172 74.7978 15.5552 74.7978 16.6737V19.8682C74.7978 21.0405 74.9 22.1269 75.1043 23.1271C75.3194 24.1274 75.6313 25.0255 76.0401 25.8214C76.395 26.5421 76.8252 27.182 77.3307 27.7413C77.847 28.3006 78.4171 28.7739 79.0409 29.1611C79.6755 29.5375 80.3692 29.8225 81.1221 30.0161C81.8858 30.2205 82.6978 30.3227 83.5583 30.3227C84.5478 30.3227 85.4728 30.2312 86.3332 30.0484C87.1937 29.8656 87.9735 29.6236 88.6726 29.3224C89.3609 29.032 89.9579 28.7039 90.4634 28.3383C90.9689 27.9726 91.3669 27.6122 91.6573 27.2573Z" fill="white"/>
<path d="M96.707 12.5436V16.2059H101.676V26.3538H96.707V30H110.937V26.3538H106.21V12.5436H96.707ZM101.353 8.0746C101.353 8.41878 101.413 8.74145 101.531 9.04261C101.66 9.33301 101.837 9.58039 102.063 9.78475C102.289 9.99986 102.558 10.1666 102.87 10.2849C103.193 10.4032 103.548 10.4624 103.935 10.4624C104.731 10.4624 105.36 10.2419 105.822 9.80088C106.296 9.34915 106.532 8.77372 106.532 8.0746C106.532 7.37548 106.296 6.80543 105.822 6.36445C105.36 5.91271 104.731 5.68685 103.935 5.68685C103.548 5.68685 103.193 5.746 102.87 5.86431C102.558 5.98263 102.289 6.14396 102.063 6.34832C101.837 6.56343 101.66 6.82157 101.531 7.12273C101.413 7.41313 101.353 7.73042 101.353 8.0746Z" fill="white"/>
<path d="M123.585 8.2682H119.1V12.5436H115.115V15.8509H119.1V23.7886C119.1 24.9395 119.251 25.929 119.552 26.7572C119.853 27.5746 120.283 28.2468 120.843 28.7739C121.391 29.3116 122.053 29.7096 122.827 29.9677C123.612 30.2151 124.484 30.3388 125.441 30.3388C125.936 30.3388 126.436 30.3119 126.941 30.2581C127.457 30.2151 127.952 30.1506 128.425 30.0645C128.899 29.9785 129.345 29.8709 129.765 29.7419C130.184 29.602 130.55 29.4407 130.862 29.2579L130.426 26.1764C130.222 26.2301 129.974 26.2839 129.684 26.3377C129.404 26.3915 129.103 26.4399 128.78 26.4829C128.447 26.5367 128.097 26.5797 127.732 26.612C127.377 26.6442 127.027 26.6604 126.683 26.6604C126.21 26.6604 125.78 26.6066 125.392 26.499C125.016 26.3915 124.693 26.2086 124.424 25.9505C124.155 25.7031 123.946 25.3697 123.795 24.9502C123.655 24.52 123.585 23.9876 123.585 23.353V15.8509H130.103V12.5436H123.585V8.2682Z" fill="white"/>
<path d="M149.948 20.2715V16.5931H139.88V10.2042H151.206V6.50965H135.331V30H139.88V20.2715H149.948Z" fill="white"/>
<path d="M165.952 30H170.502V29.7257C170.276 29.2847 170.104 28.7577 169.985 28.1446C169.867 27.5316 169.808 26.7572 169.808 25.8214V18.3355C169.808 17.3245 169.62 16.4371 169.243 15.6735C168.867 14.8991 168.345 14.2591 167.678 13.7536C167.011 13.2481 166.221 12.8662 165.307 12.6081C164.403 12.35 163.424 12.2209 162.37 12.2209C161.198 12.2209 160.155 12.3715 159.24 12.6726C158.337 12.963 157.573 13.361 156.949 13.8665C156.315 14.372 155.831 14.9582 155.497 15.6251C155.175 16.2919 155.013 16.9964 155.013 17.7386H159.499C159.499 17.4266 159.542 17.1416 159.628 16.8835C159.724 16.6253 159.87 16.4049 160.063 16.222C160.278 16.0177 160.558 15.8617 160.902 15.7541C161.246 15.6358 161.655 15.5767 162.128 15.5767C162.666 15.5767 163.134 15.6466 163.532 15.7864C163.941 15.9155 164.279 16.1037 164.548 16.3511C164.806 16.5877 165 16.8727 165.129 17.2062C165.258 17.5288 165.323 17.8945 165.323 18.3032V19.3358H162.822C161.531 19.3358 160.386 19.4541 159.386 19.6907C158.396 19.9166 157.563 20.25 156.885 20.691C156.132 21.175 155.567 21.7934 155.191 22.5463C154.814 23.2885 154.626 24.1435 154.626 25.1116C154.626 25.8645 154.777 26.5636 155.078 27.2089C155.379 27.8435 155.799 28.392 156.336 28.8545C156.874 29.317 157.514 29.6773 158.256 29.9355C159.009 30.1936 159.832 30.3227 160.725 30.3227C161.273 30.3227 161.784 30.2689 162.257 30.1613C162.731 30.0645 163.166 29.9247 163.564 29.7419C163.951 29.5698 164.306 29.3654 164.629 29.1288C164.952 28.8922 165.237 28.6394 165.484 28.3705C165.538 28.6824 165.602 28.9782 165.678 29.2579C165.753 29.5375 165.844 29.7849 165.952 30ZM161.677 26.854C161.257 26.854 160.886 26.8056 160.563 26.7088C160.251 26.6012 159.988 26.4614 159.773 26.2893C159.558 26.1065 159.391 25.886 159.273 25.6278C159.165 25.3589 159.111 25.0685 159.111 24.7566C159.111 24.3587 159.187 23.993 159.337 23.6595C159.488 23.3154 159.719 23.0196 160.031 22.7722C160.343 22.5356 160.746 22.3527 161.241 22.2237C161.736 22.0838 162.333 22.0139 163.032 22.0139H165.323V25.0148C165.194 25.2406 165.016 25.4665 164.79 25.6924C164.564 25.9075 164.296 26.1011 163.984 26.2732C163.672 26.4453 163.322 26.5851 162.935 26.6926C162.548 26.8002 162.128 26.854 161.677 26.854Z" fill="white"/>
<path d="M180.44 30H184.651L191.282 12.5436H186.603L182.779 24.8534L182.537 26.0796L182.295 24.8534L178.455 12.5436H173.777L180.44 30Z" fill="white"/>
<path fill-rule="evenodd" clip-rule="evenodd" d="M38.1649 19.6033C37.7221 20.031 37.5209 20.6472 37.6246 21.2516L38.2935 25.1189C38.5019 26.3228 37.5375 27.3005 36.4436 27.3005C36.1553 27.3005 35.8577 27.2323 35.5694 27.0822L32.0697 25.2562C31.7959 25.114 31.4963 25.0429 31.1956 25.0429C30.8959 25.0429 30.5962 25.114 30.3224 25.2562L26.8227 27.0822C26.5345 27.2323 26.2369 27.3005 25.9486 27.3005C24.8546 27.3005 23.8902 26.3228 24.0987 25.1189L24.7675 21.2516C24.8712 20.6472 24.67 20.031 24.2273 19.6033L21.3953 16.8648C20.2817 15.7874 20.8966 13.91 22.4354 13.6878L26.3489 13.1239C26.9607 13.036 27.4895 12.6548 27.7622 12.1047L29.5126 8.58701C29.8568 7.89472 30.5267 7.54908 31.1956 7.54908C31.8654 7.54908 32.5353 7.89472 32.8796 8.58701L34.6299 12.1047C34.9026 12.6548 35.4315 13.036 36.0433 13.1239L39.9567 13.6878C41.4956 13.91 42.1105 15.7874 40.9968 16.8648L38.1649 19.6033Z" stroke="black" stroke-width="2" mask="url(#path-1-outside-1_301_329)"/>
<path d="M53.7556 11.9129V8.27818C53.7556 4.26088 50.4975 1 46.4791 1V4.64018C48.4869 4.64018 50.1176 6.2698 50.1176 8.27818V11.9129C50.1176 14.0992 51.1016 16.0383 52.6281 17.3726C51.1016 18.7065 50.1176 20.6428 50.1176 22.8302V26.4682C50.1176 28.4776 48.4869 30.1067 46.4774 30.1067V33.7453C50.4937 33.7453 53.7556 30.4888 53.7556 26.4682V22.8302C53.7556 20.8207 55.3863 19.1916 57.3942 19.1916V15.5515C55.3831 15.5515 53.7556 13.9218 53.7556 11.9129Z" stroke="black" stroke-width="2" mask="url(#path-1-outside-1_301_329)"/>
<path d="M12.2787 11.9151V8.27655C12.2787 6.26708 13.9094 4.638 15.9189 4.638V1C11.9005 1 8.64018 4.25652 8.64018 8.27655L8.63855 11.9151C8.63855 13.9246 7.00947 15.5531 5 15.5531V19.1916L5.00164 19.1933C7.01111 19.1933 8.64018 20.8223 8.64018 22.8318V26.4665C8.64018 30.4833 11.8967 33.7453 15.9167 33.7453V30.1051C13.9073 30.1051 12.2787 28.476 12.2787 26.4665V22.8318C12.2787 20.645 11.2942 18.7065 9.76826 17.3726C11.2942 16.0383 12.2787 14.1008 12.2787 11.9151Z" stroke="black" stroke-width="2" mask="url(#path-1-outside-1_301_329)"/>
<path d="M91.6573 27.2573L91.6411 17.9967H83.2356V21.3847H87.1238L87.1076 25.644C86.9893 25.7838 86.8118 25.9182 86.5752 26.0473C86.3493 26.1656 86.0858 26.2732 85.7847 26.37C85.4835 26.4668 85.1608 26.5421 84.8167 26.5958C84.4725 26.6496 84.1229 26.6765 83.768 26.6765C83.1872 26.6657 82.6655 26.5743 82.203 26.4022C81.7513 26.2194 81.3534 25.9559 81.0092 25.6117C80.8048 25.4073 80.6166 25.1761 80.4445 24.918C80.2832 24.6491 80.138 24.3587 80.0089 24.0467C79.8045 23.509 79.6432 22.8905 79.5249 22.1914C79.4173 21.4923 79.3636 20.7179 79.3636 19.8682V16.6415C79.3636 15.9639 79.4012 15.3347 79.4765 14.7539C79.5625 14.1731 79.6808 13.646 79.8314 13.1728C80.025 12.5597 80.267 12.0273 80.5574 11.5756C80.8586 11.1238 81.192 10.7581 81.5577 10.4785C81.8374 10.2741 82.1385 10.1182 82.4612 10.0106C82.7839 9.90306 83.1173 9.84928 83.4615 9.84928C84.096 9.84928 84.6392 9.93533 85.0909 10.1074C85.5534 10.2688 85.9353 10.5161 86.2364 10.8496C86.5053 11.1507 86.715 11.5218 86.8656 11.9628C87.027 12.4038 87.1453 12.9093 87.2206 13.4793H91.6411C91.5228 12.35 91.2701 11.3336 90.8829 10.4301C90.5064 9.52661 89.9794 8.75759 89.3018 8.123C88.6242 7.49917 87.7906 7.02055 86.8011 6.68712C85.8223 6.3537 84.6715 6.18698 83.3485 6.18698C82.4881 6.18698 81.6706 6.3053 80.8962 6.54192C80.1218 6.77854 79.4066 7.1281 78.7505 7.5906C78.1912 7.99931 77.6749 8.48332 77.2017 9.04261C76.7392 9.6019 76.3305 10.2311 75.9755 10.9302C75.5991 11.7154 75.3087 12.592 75.1043 13.56C74.9 14.5172 74.7978 15.5552 74.7978 16.6737V19.8682C74.7978 21.0405 74.9 22.1269 75.1043 23.1271C75.3194 24.1274 75.6313 25.0255 76.0401 25.8214C76.395 26.5421 76.8252 27.182 77.3307 27.7413C77.847 28.3006 78.4171 28.7739 79.0409 29.1611C79.6755 29.5375 80.3692 29.8225 81.1221 30.0161C81.8858 30.2205 82.6978 30.3227 83.5583 30.3227C84.5478 30.3227 85.4728 30.2312 86.3332 30.0484C87.1937 29.8656 87.9735 29.6236 88.6726 29.3224C89.3609 29.032 89.9579 28.7039 90.4634 28.3383C90.9689 27.9726 91.3669 27.6122 91.6573 27.2573Z" stroke="black" stroke-width="2" mask="url(#path-1-outside-1_301_329)"/>
<path d="M96.707 12.5436V16.2059H101.676V26.3538H96.707V30H110.937V26.3538H106.21V12.5436H96.707ZM101.353 8.0746C101.353 8.41878 101.413 8.74145 101.531 9.04261C101.66 9.33301 101.837 9.58039 102.063 9.78475C102.289 9.99986 102.558 10.1666 102.87 10.2849C103.193 10.4032 103.548 10.4624 103.935 10.4624C104.731 10.4624 105.36 10.2419 105.822 9.80088C106.296 9.34915 106.532 8.77372 106.532 8.0746C106.532 7.37548 106.296 6.80543 105.822 6.36445C105.36 5.91271 104.731 5.68685 103.935 5.68685C103.548 5.68685 103.193 5.746 102.87 5.86431C102.558 5.98263 102.289 6.14396 102.063 6.34832C101.837 6.56343 101.66 6.82157 101.531 7.12273C101.413 7.41313 101.353 7.73042 101.353 8.0746Z" stroke="black" stroke-width="2" mask="url(#path-1-outside-1_301_329)"/>
<path d="M123.585 8.2682H119.1V12.5436H115.115V15.8509H119.1V23.7886C119.1 24.9395 119.251 25.929 119.552 26.7572C119.853 27.5746 120.283 28.2468 120.843 28.7739C121.391 29.3116 122.053 29.7096 122.827 29.9677C123.612 30.2151 124.484 30.3388 125.441 30.3388C125.936 30.3388 126.436 30.3119 126.941 30.2581C127.457 30.2151 127.952 30.1506 128.425 30.0645C128.899 29.9785 129.345 29.8709 129.765 29.7419C130.184 29.602 130.55 29.4407 130.862 29.2579L130.426 26.1764C130.222 26.2301 129.974 26.2839 129.684 26.3377C129.404 26.3915 129.103 26.4399 128.78 26.4829C128.447 26.5367 128.097 26.5797 127.732 26.612C127.377 26.6442 127.027 26.6604 126.683 26.6604C126.21 26.6604 125.78 26.6066 125.392 26.499C125.016 26.3915 124.693 26.2086 124.424 25.9505C124.155 25.7031 123.946 25.3697 123.795 24.9502C123.655 24.52 123.585 23.9876 123.585 23.353V15.8509H130.103V12.5436H123.585V8.2682Z" stroke="black" stroke-width="2" mask="url(#path-1-outside-1_301_329)"/>
<path d="M149.948 20.2715V16.5931H139.88V10.2042H151.206V6.50965H135.331V30H139.88V20.2715H149.948Z" stroke="black" stroke-width="2" mask="url(#path-1-outside-1_301_329)"/>
<path d="M165.952 30H170.502V29.7257C170.276 29.2847 170.104 28.7577 169.985 28.1446C169.867 27.5316 169.808 26.7572 169.808 25.8214V18.3355C169.808 17.3245 169.62 16.4371 169.243 15.6735C168.867 14.8991 168.345 14.2591 167.678 13.7536C167.011 13.2481 166.221 12.8662 165.307 12.6081C164.403 12.35 163.424 12.2209 162.37 12.2209C161.198 12.2209 160.155 12.3715 159.24 12.6726C158.337 12.963 157.573 13.361 156.949 13.8665C156.315 14.372 155.831 14.9582 155.497 15.6251C155.175 16.2919 155.013 16.9964 155.013 17.7386H159.499C159.499 17.4266 159.542 17.1416 159.628 16.8835C159.724 16.6253 159.87 16.4049 160.063 16.222C160.278 16.0177 160.558 15.8617 160.902 15.7541C161.246 15.6358 161.655 15.5767 162.128 15.5767C162.666 15.5767 163.134 15.6466 163.532 15.7864C163.941 15.9155 164.279 16.1037 164.548 16.3511C164.806 16.5877 165 16.8727 165.129 17.2062C165.258 17.5288 165.323 17.8945 165.323 18.3032V19.3358H162.822C161.531 19.3358 160.386 19.4541 159.386 19.6907C158.396 19.9166 157.563 20.25 156.885 20.691C156.132 21.175 155.567 21.7934 155.191 22.5463C154.814 23.2885 154.626 24.1435 154.626 25.1116C154.626 25.8645 154.777 26.5636 155.078 27.2089C155.379 27.8435 155.799 28.392 156.336 28.8545C156.874 29.317 157.514 29.6773 158.256 29.9355C159.009 30.1936 159.832 30.3227 160.725 30.3227C161.273 30.3227 161.784 30.2689 162.257 30.1613C162.731 30.0645 163.166 29.9247 163.564 29.7419C163.951 29.5698 164.306 29.3654 164.629 29.1288C164.952 28.8922 165.237 28.6394 165.484 28.3705C165.538 28.6824 165.602 28.9782 165.678 29.2579C165.753 29.5375 165.844 29.7849 165.952 30ZM161.677 26.854C161.257 26.854 160.886 26.8056 160.563 26.7088C160.251 26.6012 159.988 26.4614 159.773 26.2893C159.558 26.1065 159.391 25.886 159.273 25.6278C159.165 25.3589 159.111 25.0685 159.111 24.7566C159.111 24.3587 159.187 23.993 159.337 23.6595C159.488 23.3154 159.719 23.0196 160.031 22.7722C160.343 22.5356 160.746 22.3527 161.241 22.2237C161.736 22.0838 162.333 22.0139 163.032 22.0139H165.323V25.0148C165.194 25.2406 165.016 25.4665 164.79 25.6924C164.564 25.9075 164.296 26.1011 163.984 26.2732C163.672 26.4453 163.322 26.5851 162.935 26.6926C162.548 26.8002 162.128 26.854 161.677 26.854Z" stroke="black" stroke-width="2" mask="url(#path-1-outside-1_301_329)"/>
<path d="M180.44 30H184.651L191.282 12.5436H186.603L182.779 24.8534L182.537 26.0796L182.295 24.8534L178.455 12.5436H173.777L180.44 30Z" stroke="black" stroke-width="2" mask="url(#path-1-outside-1_301_329)"/>
</g>
<defs>
<filter id="filter0_d_301_329" x="0" y="0" width="196.731" height="42.7453" filterUnits="userSpaceOnUse" color-interpolation-filters="sRGB">
<feFlood flood-opacity="0" result="BackgroundImageFix"/>
<feColorMatrix in="SourceAlpha" type="matrix" values="0 0 0 0 0 0 0 0 0 0 0 0 0 0 0 0 0 0 127 0" result="hardAlpha"/>
<feOffset dy="4"/>
<feGaussianBlur stdDeviation="2"/>
<feComposite in2="hardAlpha" operator="out"/>
<feColorMatrix type="matrix" values="0 0 0 0 0 0 0 0 0 0 0 0 0 0 0 0 0 0 0.25 0"/>
<feBlend mode="normal" in2="BackgroundImageFix" result="effect1_dropShadow_301_329"/>
<feBlend mode="normal" in="SourceGraphic" in2="effect1_dropShadow_301_329" result="shape"/>
</filter>
</defs>
</svg>
